<svg xmlns="http://www.w3.org/2000/svg" viewBox="0 0 32 32">
  <title>webfinger.js favicon - Web Spider Thread</title>
  <defs>
    <linearGradient id="g14" x1="0%" y1="0%" x2="100%" y2="100%">
      <stop offset="0%" stop-color="#e2bb03"/>
      <stop offset="100%" stop-color="#d4a017"/>
    </linearGradient>
  </defs>
  <g transform="translate(16, 16)">
    <line x1="0" y1="0" x2="0" y2="-13" stroke="url(#g14)" stroke-width="0.7" opacity="0.3"/>
    <line x1="0" y1="0" x2="11" y2="-7" stroke="url(#g14)" stroke-width="0.7" opacity="0.3"/>
    <line x1="0" y1="0" x2="11" y2="7" stroke="url(#g14)" stroke-width="0.7" opacity="0.3"/>
    <line x1="0" y1="0" x2="0" y2="13" stroke="url(#g14)" stroke-width="0.7" opacity="0.3"/>
    <line x1="0" y1="0" x2="-11" y2="7" stroke="url(#g14)" stroke-width="0.7" opacity="0.3"/>
    <line x1="0" y1="0" x2="-11" y2="-7" stroke="url(#g14)" stroke-width="0.7" opacity="0.3"/>
    <polygon points="0,-6 5.2,-3 5.2,3 0,6 -5.2,3 -5.2,-3" fill="none" stroke="url(#g14)" stroke-width="0.7" opacity="0.25"/>
    <polygon points="0,-11 9.5,-5.5 9.5,5.5 0,11 -9.5,5.5 -9.5,-5.5" fill="none" stroke="url(#g14)" stroke-width="0.6" opacity="0.18"/>
    <path d="M-3,0 Q-2,-2.5 0,-2.5 Q2.5,-2.5 3,0 Q3,2 1,3 Q-1,3 -2,1.5" fill="none" stroke="url(#g14)" stroke-width="1.5" opacity="0.8" stroke-linecap="round"/>
    <circle cx="0" cy="0" r="1" fill="#e2bb03"/>
  </g>
</svg>