<svg xmlns="http://www.w3.org/2000/svg" viewBox="0 0 32 32">
  <title>webfinger.js favicon - Golden Hand</title>
  <defs>
    <linearGradient id="g11" x1="0%" y1="0%" x2="100%" y2="100%">
      <stop offset="0%" stop-color="#e2bb03"/>
      <stop offset="100%" stop-color="#d4a017"/>
    </linearGradient>
  </defs>
  <g transform="translate(3, 5)" fill="none" stroke="url(#g11)" stroke-width="1.8" stroke-linecap="round" stroke-linejoin="round">
    <path d="M7,14 L19,14 C21,14 22,13 22,11.5 C22,10 21,9 19,9 L13,9" fill="url(#g11)" fill-opacity="0.1"/>
    <path d="M7,14 L7,18 C7,20 8,21 10,21 L13,21 C15,21 15,19 15,17" fill="url(#g11)" fill-opacity="0.06"/>
    <path d="M7,9 L7,6 C7,4 8,3 10,3 L11,3 C13,3 13,4 13,6 L13,9" fill="url(#g11)" fill-opacity="0.06"/>
    <circle cx="24" cy="11.5" r="1" fill="#e2bb03" opacity="0.7"/>
    <circle cx="26" cy="11.5" r="0.7" fill="#e2bb03" opacity="0.4"/>
  </g>
</svg>