<svg xmlns="http://www.w3.org/2000/svg" viewBox="0 0 32 32">
  <title>webfinger.js favicon - Hand with Network</title>
  <defs>
    <linearGradient id="g19g" x1="0%" y1="0%" x2="100%" y2="100%">
      <stop offset="0%" stop-color="#e2bb03"/>
      <stop offset="100%" stop-color="#d4a017"/>
    </linearGradient>
    <linearGradient id="g19p" x1="0%" y1="0%" x2="100%" y2="100%">
      <stop offset="0%" stop-color="#667eea"/>
      <stop offset="100%" stop-color="#764ba2"/>
    </linearGradient>
  </defs>
  <g transform="translate(4, 4)">
    <path d="M8,26 L2,26 L2,14 C2,13 3,12 4,12 L4,7 C4,5.5 5,4.5 6.5,4.5 C8,4.5 9,5.5 9,7 L9,10 L10,6 C10,4.5 11,3.5 12.5,3.5 C14,3.5 15,4.5 15,6 L14,12 L16,7 C16,5.5 17,4.5 18.5,4.5 C20,4.5 21,5.5 21,7 L19,15 L21,10 C21,8.5 22,7.5 23.5,7.5 C25,7.5 26,8.5 26,10 L23,22 C22,25 19,26 15,26 Z"
      fill="url(#g19g)" fill-opacity="0.12" stroke="url(#g19g)" stroke-width="1.2" stroke-linejoin="round"/>
    <circle cx="6.5" cy="3" r="1.3" fill="url(#g19p)" opacity="0.6"/>
    <circle cx="12.5" cy="2" r="1.3" fill="url(#g19p)" opacity="0.5"/>
    <circle cx="18.5" cy="3" r="1.3" fill="url(#g19p)" opacity="0.5"/>
    <circle cx="23.5" cy="6" r="1.3" fill="url(#g19p)" opacity="0.4"/>
    <line x1="6.5" y1="3" x2="12.5" y2="2" stroke="url(#g19p)" stroke-width="0.6" opacity="0.3"/>
    <line x1="12.5" y1="2" x2="18.5" y2="3" stroke="url(#g19p)" stroke-width="0.6" opacity="0.3"/>
    <line x1="18.5" y1="3" x2="23.5" y2="6" stroke="url(#g19p)" stroke-width="0.6" opacity="0.3"/>
  </g>
</svg>