<svg xmlns="http://www.w3.org/2000/svg" viewBox="0 0 32 32">
  <title>webfinger.js favicon - White on Gold</title>
  <defs>
    <linearGradient id="g37g" x1="0%" y1="0%" x2="100%" y2="100%">
      <stop offset="0%" stop-color="#e2bb03"/>
      <stop offset="100%" stop-color="#c49b00"/>
    </linearGradient>
  </defs>
  <rect x="1" y="1" width="30" height="30" rx="6" fill="url(#g37g)"/>
  <g transform="translate(6, 2.5) scale(0.7)">
    <path d="
      M5,16 L4,7 Q3.7,4 5.2,3.5 Q6.7,3.2 7,5 L8,13
      L9,8 Q9.3,5.5 10.5,6 Q11.7,6.3 11.5,8.5 L10.5,14
      L12.5,7.5 Q12.8,5 14,5.3 Q15.2,5.7 14.8,8 L13.5,15
      L16,5.5 Q16.3,3 17.5,3 Q18.8,3 18.5,5 L16.5,15.5
      Q18.5,17 19.5,20 L19.5,26 Q19.5,28.5 17.5,29.5 L7.5,29.5 Q5,29.5 4.5,27 L4.5,21 Q4.5,18 5,16 Z
    " fill="white"/>
    <g fill="none" stroke="rgba(0,0,0,0.2)" stroke-width="0.5" stroke-linecap="round">
      <path d="M10,9.5 Q11.5,8.5 12.5,10"/>
      <path d="M14.5,18 Q16,17 17.5,18.5"/>
    </g>
  </g>
</svg>