<svg xmlns="http://www.w3.org/2000/svg" viewBox="0 0 320 80">
  <title>webfinger.js - Hand with Network Nodes</title>
  <defs>
    <linearGradient id="grad30g" x1="0%" y1="0%" x2="100%" y2="100%">
      <stop offset="0%" stop-color="#e2bb03"/>
      <stop offset="100%" stop-color="#c49b00"/>
    </linearGradient>
    <linearGradient id="grad30p" x1="0%" y1="0%" x2="100%" y2="100%">
      <stop offset="0%" stop-color="#667eea"/>
      <stop offset="100%" stop-color="#764ba2"/>
    </linearGradient>
  </defs>
  <!-- Hand -->
  <g transform="translate(6, 2) scale(0.22)">
    <g fill="url(#grad30g)">
      <path d="M67.82 28.01c1.37-9.76 10.34-17.77 20.14-18.26 4.71.05 9.39.84 14.12.54 7.37-.24 15.7 2.6 19.24 9.54 7.17 14.36 5.27 31.13 11.18 45.88 2.95 7.6 6.75 14.82 10.06 22.26 3.36-15.72 4.17-31.89 7.93-47.53 1.71-6.98 4.51-14.08 9.98-18.98 5.4-4.96 13.5-6.36 20.43-4.27 4.93 1.51 8.91 5.33 11.2 9.88 2.98 5.86 3.72 12.51 4.43 18.94 4.19 34.74-4.69 69.25-4 103.98.07 5.51-.67 11.42 2.02 16.48 4.2 8.08 11.44 14.66 13.6 23.75.56 5.77-1.56 11.36-2.67 16.95-2.5 11.96-7.76 23.42-7.98 35.79-1.27 21.59 8.48 41.79 9.55 63.16-10.24 3.85-21.12 5.2-31.77 7.37-30.08 5.54-60.04 11.74-90.15 17.14-3.29-14.81-6.15-29.7-9.19-44.56-1.18-5.36-2.12-10.8-4.05-15.94-2.97-7.86-9.19-13.96-12.18-21.81-2.79-7.38-3.71-15.29-5.01-23.03-2.62-16.07-4.34-32.29-7.71-48.24-1.76-8.52-6.6-15.85-10.41-23.53-8.55-16.81-13.21-35.2-20.55-52.52-2.18-5.65-5.09-11.44-4.52-17.66 1.57-9.75 11.51-17.37 21.35-16.19 6.79.7 12.41 5.29 16.57 10.41 8.71 11.09 14.24 24.21 22.07 35.87 2.66-16.69 3.21-33.63 4.02-50.48.47-5.45-2.18-10.36-4.16-15.25-2.54-6.2-4.4-12.94-3.54-19.69Z"/>
    </g>
  </g>
  <!-- Network nodes connecting from the hand's fingertips outward -->
  <!-- From pinky tip area -->
  <line x1="12" y1="8" x2="22" y2="4" stroke="url(#grad30p)" stroke-width="0.8" opacity="0.3"/>
  <circle cx="22" cy="4" r="2" fill="url(#grad30p)" opacity="0.5"/>
  <!-- From index tip area -->
  <line x1="36" y1="6" x2="52" y2="8" stroke="url(#grad30p)" stroke-width="0.8" opacity="0.3"/>
  <circle cx="52" cy="8" r="2.5" fill="url(#grad30p)" opacity="0.5"/>
  <!-- Cross connections -->
  <line x1="22" y1="4" x2="52" y2="8" stroke="url(#grad30p)" stroke-width="0.6" opacity="0.15"/>
  <line x1="52" y1="8" x2="62" y2="20" stroke="url(#grad30p)" stroke-width="0.6" opacity="0.15"/>
  <circle cx="62" cy="20" r="1.8" fill="url(#grad30p)" opacity="0.35"/>
  <!-- From palm/wrist area -->
  <line x1="30" y1="72" x2="46" y2="68" stroke="url(#grad30p)" stroke-width="0.8" opacity="0.25"/>
  <circle cx="46" cy="68" r="2" fill="url(#grad30p)" opacity="0.4"/>
  <line x1="46" y1="68" x2="62" y2="20" stroke="url(#grad30p)" stroke-width="0.5" opacity="0.1"/>
  <!-- Wordmark -->
  <text x="72" y="50" font-family="-apple-system, BlinkMacSystemFont, 'Segoe UI', sans-serif" font-size="28" font-weight="600" fill="#2d3748">webfinger<tspan fill="url(#grad30p)">.js</tspan></text>
</svg>