<svg xmlns="http://www.w3.org/2000/svg" viewBox="0 0 320 80">
  <title>webfinger.js - Classic Hand (Purple)</title>
  <defs>
    <linearGradient id="grad22" x1="0%" y1="0%" x2="100%" y2="100%">
      <stop offset="0%" stop-color="#667eea"/>
      <stop offset="100%" stop-color="#764ba2"/>
    </linearGradient>
  </defs>
  <g transform="translate(6, 2) scale(0.22)">
    <g fill="url(#grad22)">
      <path d="M67.82 28.01c1.37-9.76 10.34-17.77 20.14-18.26 4.71.05 9.39.84 14.12.54 7.37-.24 15.7 2.6 19.24 9.54 7.17 14.36 5.27 31.13 11.18 45.88 2.95 7.6 6.75 14.82 10.06 22.26 3.36-15.72 4.17-31.89 7.93-47.53 1.71-6.98 4.51-14.08 9.98-18.98 5.4-4.96 13.5-6.36 20.43-4.27 4.93 1.51 8.91 5.33 11.2 9.88 2.98 5.86 3.72 12.51 4.43 18.94 4.19 34.74-4.69 69.25-4 103.98.07 5.51-.67 11.42 2.02 16.48 4.2 8.08 11.44 14.66 13.6 23.75.56 5.77-1.56 11.36-2.67 16.95-2.5 11.96-7.76 23.42-7.98 35.79-1.27 21.59 8.48 41.79 9.55 63.16-10.24 3.85-21.12 5.2-31.77 7.37-30.08 5.54-60.04 11.74-90.15 17.14-3.29-14.81-6.15-29.7-9.19-44.56-1.18-5.36-2.12-10.8-4.05-15.94-2.97-7.86-9.19-13.96-12.18-21.81-2.79-7.38-3.71-15.29-5.01-23.03-2.62-16.07-4.34-32.29-7.71-48.24-1.76-8.52-6.6-15.85-10.41-23.53-8.55-16.81-13.21-35.2-20.55-52.52-2.18-5.65-5.09-11.44-4.52-17.66 1.57-9.75 11.51-17.37 21.35-16.19 6.79.7 12.41 5.29 16.57 10.41 8.71 11.09 14.24 24.21 22.07 35.87 2.66-16.69 3.21-33.63 4.02-50.48.47-5.45-2.18-10.36-4.16-15.25-2.54-6.2-4.4-12.94-3.54-19.69Z"/>
    </g>
    <g fill="white" opacity="0.15">
      <path d="M79.13 29.2c1.84-5.95 8.45-8.08 14.11-7.8-4.42 9.53-6.44 19.86-8.92 30-3.53-6.76-6.71-14.44-5.19-22.2Z"/>
      <path d="M99.2 148.12c9.98.44 19.9 1.48 29.81 2.76-1.37 4.43-1.82 10.42-6.86 12.3-8.75 3.13-18.22 1.08-27.22.42 1.26-5.2 2.72-10.36 4.27-15.48Z"/>
    </g>
  </g>
  <!-- Wordmark -->
  <text x="62" y="50" font-family="-apple-system, BlinkMacSystemFont, 'Segoe UI', sans-serif" font-size="28" font-weight="600" fill="#2d3748">webfinger<tspan fill="url(#grad22)">.js</tspan></text>
</svg>