<svg xmlns="http://www.w3.org/2000/svg" viewBox="0 0 320 80">
  <title>webfinger.js - Web Spider Thread</title>
  <defs>
    <linearGradient id="grad14" x1="0%" y1="0%" x2="100%" y2="100%">
      <stop offset="0%" stop-color="#e2bb03"/>
      <stop offset="100%" stop-color="#d4a017"/>
    </linearGradient>
    <linearGradient id="grad14p" x1="0%" y1="0%" x2="100%" y2="100%">
      <stop offset="0%" stop-color="#667eea"/>
      <stop offset="100%" stop-color="#764ba2"/>
    </linearGradient>
  </defs>
  <g transform="translate(40, 40)">
    <!-- Web strands radiating from center -->
    <line x1="0" y1="0" x2="0" y2="-26" stroke="url(#grad14)" stroke-width="0.8" opacity="0.3"/>
    <line x1="0" y1="0" x2="22" y2="-14" stroke="url(#grad14)" stroke-width="0.8" opacity="0.3"/>
    <line x1="0" y1="0" x2="22" y2="14" stroke="url(#grad14)" stroke-width="0.8" opacity="0.3"/>
    <line x1="0" y1="0" x2="0" y2="26" stroke="url(#grad14)" stroke-width="0.8" opacity="0.3"/>
    <line x1="0" y1="0" x2="-22" y2="14" stroke="url(#grad14)" stroke-width="0.8" opacity="0.3"/>
    <line x1="0" y1="0" x2="-22" y2="-14" stroke="url(#grad14)" stroke-width="0.8" opacity="0.3"/>
    <!-- Concentric web rings -->
    <polygon points="0,-10 8.7,-5 8.7,5 0,10 -8.7,5 -8.7,-5" fill="none" stroke="url(#grad14)" stroke-width="0.8" opacity="0.25"/>
    <polygon points="0,-18 15.6,-9 15.6,9 0,18 -15.6,9 -15.6,-9" fill="none" stroke="url(#grad14)" stroke-width="0.8" opacity="0.2"/>
    <polygon points="0,-25 21.7,-12.5 21.7,12.5 0,25 -21.7,12.5 -21.7,-12.5" fill="none" stroke="url(#grad14)" stroke-width="0.6" opacity="0.12"/>
    <!-- Central golden fingerprint whorl -->
    <path d="M-5,0 Q-4,-4 0,-4 Q4,-4 5,-1 Q5,2 2,4 Q-1,5 -3,3" fill="none" stroke="url(#grad14)" stroke-width="2" opacity="0.8" stroke-linecap="round"/>
    <circle cx="0" cy="0" r="1.2" fill="#e2bb03"/>
  </g>
  <!-- Wordmark -->
  <text x="80" y="48" font-family="-apple-system, BlinkMacSystemFont, 'Segoe UI', sans-serif" font-size="28" font-weight="600" fill="#3b351d"><tspan fill="url(#grad14p)">web</tspan>finger<tspan fill="url(#grad14)">.js</tspan></text>
</svg>